<svg xmlns="http://www.w3.org/2000/svg" width="420" height="64"><rect width="420" height="64" fill="#362044"/><g transform="translate(87.5 18) scale(.875)" fill="none" stroke="#D7B454"><path d="M1 16H111 M169 16H279" stroke-opacity=".8" stroke-linecap="round"/><g transform=""><path d="M140 28C130 25 125 17 125 6" stroke-width="1.2" stroke-linecap="round"/><path fill="#D7B454" stroke="none" d="M125 11C120 8 121 4 123 2C126 4 127 8 125 11Z M127 18C121 18 118 14 119 10C123 11 126 14 127 18Z M127 18C126 13 129 9 133 8C134 13 131 17 127 18Z M134 24C128 27 123 23 122 20C127 19 131 21 134 24Z M134 24C129 19 132 15 136 14C138 18 137 22 134 24Z"/></g><g transform="translate(280 0) scale(-1 1)"><path d="M140 28C130 25 125 17 125 6" stroke-width="1.2" stroke-linecap="round"/><path fill="#D7B454" stroke="none" d="M125 11C120 8 121 4 123 2C126 4 127 8 125 11Z M127 18C121 18 118 14 119 10C123 11 126 14 127 18Z M127 18C126 13 129 9 133 8C134 13 131 17 127 18Z M134 24C128 27 123 23 122 20C127 19 131 21 134 24Z M134 24C129 19 132 15 136 14C138 18 137 22 134 24Z"/></g></g></svg>